# Blender v2.79 (sub 0) OBJ File: 'Target.blend'
# www.blender.org
mtllib Target.mtl
o Cylinder
v 0.000000 1.000000 -0.050000
v 0.000000 1.000000 0.050000
v 0.195090 0.980785 -0.050000
v 0.195090 0.980785 0.050000
v 0.382683 0.923880 -0.050000
v 0.382683 0.923880 0.050000
v 0.555570 0.831470 -0.050000
v 0.555570 0.831470 0.050000
v 0.707107 0.707107 -0.050000
v 0.707107 0.707107 0.050000
v 0.831470 0.555570 -0.050000
v 0.831470 0.555570 0.050000
v 0.923880 0.382683 -0.050000
v 0.923880 0.382683 0.050000
v 0.980785 0.195090 -0.050000
v 0.980785 0.195090 0.050000
v 1.000000 0.000000 -0.050000
v 1.000000 0.000000 0.050000
v 0.980785 -0.195090 -0.050000
v 0.980785 -0.195090 0.050000
v 0.923880 -0.382683 -0.050000
v 0.923880 -0.382683 0.050000
v 0.831470 -0.555570 -0.050000
v 0.831470 -0.555570 0.050000
v 0.707107 -0.707107 -0.050000
v 0.707107 -0.707107 0.050000
v 0.555570 -0.831470 -0.050000
v 0.555570 -0.831470 0.050000
v 0.382683 -0.923880 -0.050000
v 0.382683 -0.923880 0.050000
v 0.195090 -0.980785 -0.050000
v 0.195090 -0.980785 0.050000
v -0.000000 -1.000000 -0.050000
v -0.000000 -1.000000 0.050000
v -0.195091 -0.980785 -0.050000
v -0.195091 -0.980785 0.050000
v -0.382684 -0.923879 -0.050000
v -0.382684 -0.923879 0.050000
v -0.555571 -0.831469 -0.050000
v -0.555571 -0.831469 0.050000
v -0.707107 -0.707106 -0.050000
v -0.707107 -0.707106 0.050000
v -0.831470 -0.555570 -0.050000
v -0.831470 -0.555570 0.050000
v -0.923880 -0.382683 -0.050000
v -0.923880 -0.382683 0.050000
v -0.980785 -0.195089 -0.050000
v -0.980785 -0.195089 0.050000
v -1.000000 0.000001 -0.050000
v -1.000000 0.000001 0.050000
v -0.980785 0.195091 -0.050000
v -0.980785 0.195091 0.050000
v -0.923879 0.382684 -0.050000
v -0.923879 0.382684 0.050000
v -0.831469 0.555571 -0.050000
v -0.831469 0.555571 0.050000
v -0.707106 0.707108 -0.050000
v -0.707106 0.707108 0.050000
v -0.555569 0.831470 -0.050000
v -0.555569 0.831470 0.050000
v -0.382682 0.923880 -0.050000
v -0.382682 0.923880 0.050000
v -0.195089 0.980786 -0.050000
v -0.195089 0.980786 0.050000
v 0.000000 0.515655 -0.192258
v 0.100599 0.505747 -0.192258
v 0.197333 0.476403 -0.192258
v 0.286483 0.428752 -0.192258
v 0.364623 0.364623 -0.192258
v 0.428752 0.286483 -0.192258
v 0.476403 0.197333 -0.192258
v 0.505747 0.100600 -0.192258
v 0.515655 0.000000 -0.192258
v 0.505747 -0.100599 -0.192258
v 0.476403 -0.197333 -0.192258
v 0.428752 -0.286483 -0.192258
v 0.364623 -0.364623 -0.192258
v 0.286483 -0.428752 -0.192258
v 0.197333 -0.476403 -0.192258
v 0.100599 -0.505747 -0.192258
v -0.000000 -0.515655 -0.192258
v -0.100600 -0.505747 -0.192258
v -0.197333 -0.476403 -0.192258
v -0.286483 -0.428751 -0.192258
v -0.364624 -0.364623 -0.192258
v -0.428752 -0.286482 -0.192258
v -0.476403 -0.197332 -0.192258
v -0.505747 -0.100599 -0.192258
v -0.515655 0.000001 -0.192258
v -0.505747 0.100600 -0.192258
v -0.476403 0.197333 -0.192258
v -0.428751 0.286483 -0.192258
v -0.364623 0.364624 -0.192258
v -0.286482 0.428752 -0.192258
v -0.197332 0.476404 -0.192258
v -0.100599 0.505747 -0.192258
v 0.000000 0.330929 -0.192258
v 0.064561 0.324570 -0.192258
v 0.126641 0.305739 -0.192258
v 0.183854 0.275158 -0.192258
v 0.234002 0.234002 -0.192258
v 0.275157 0.183854 -0.192258
v 0.305739 0.126641 -0.192258
v 0.324570 0.064561 -0.192258
v 0.330929 0.000000 -0.192258
v 0.324570 -0.064561 -0.192258
v 0.305739 -0.126641 -0.192258
v 0.275157 -0.183854 -0.192258
v 0.234002 -0.234002 -0.192258
v 0.183854 -0.275157 -0.192258
v 0.126641 -0.305738 -0.192258
v 0.064561 -0.324570 -0.192258
v -0.000000 -0.330929 -0.192258
v -0.064561 -0.324570 -0.192258
v -0.126641 -0.305738 -0.192258
v -0.183854 -0.275157 -0.192258
v -0.234002 -0.234002 -0.192258
v -0.275157 -0.183854 -0.192258
v -0.305738 -0.126641 -0.192258
v -0.324570 -0.064561 -0.192258
v -0.330929 0.000001 -0.192258
v -0.324570 0.064562 -0.192258
v -0.305738 0.126642 -0.192258
v -0.275157 0.183855 -0.192258
v -0.234002 0.234003 -0.192258
v -0.183854 0.275158 -0.192258
v -0.126640 0.305739 -0.192258
v -0.064560 0.324570 -0.192258
v 0.000000 0.182653 -0.096968
v 0.035634 0.179143 -0.096968
v 0.069898 0.168749 -0.096968
v 0.101476 0.151870 -0.096968
v 0.129155 0.129155 -0.096968
v 0.151870 0.101477 -0.096968
v 0.168749 0.069898 -0.096968
v 0.179143 0.035634 -0.096968
v 0.182653 0.000000 -0.096968
v 0.179143 -0.035633 -0.096968
v 0.168749 -0.069898 -0.096968
v 0.151870 -0.101476 -0.096968
v 0.129155 -0.129155 -0.096968
v 0.101476 -0.151870 -0.096968
v 0.069898 -0.168749 -0.096968
v 0.035634 -0.179143 -0.096968
v 0.000000 -0.182652 -0.096968
v -0.035634 -0.179143 -0.096968
v -0.069898 -0.168749 -0.096968
v -0.101476 -0.151870 -0.096968
v -0.129155 -0.129155 -0.096968
v -0.151870 -0.101476 -0.096968
v -0.168749 -0.069898 -0.096968
v -0.179143 -0.035633 -0.096968
v -0.182652 0.000000 -0.096968
v -0.179143 0.035634 -0.096968
v -0.168749 0.069899 -0.096968
v -0.151870 0.101477 -0.096968
v -0.129155 0.129155 -0.096968
v -0.101476 0.151870 -0.096968
v -0.069898 0.168749 -0.096968
v -0.035633 0.179143 -0.096968
vt 0.785278 0.631581
vt 0.816662 0.677078
vt 0.622764 0.712397
vt 0.606580 0.688936
vt 0.583086 0.667822
vt 0.538426 0.710812
vt 0.523348 0.697261
vt 0.537770 0.990393
vt 0.457336 1.000000
vt 0.437475 0.878914
vt 0.478951 0.873960
vt 0.000000 0.774623
vt 0.000000 0.725377
vt 0.201648 0.737303
vt 0.201648 0.762697
vt 0.537770 0.509607
vt 0.613537 0.528453
vt 0.518021 0.635758
vt 0.478951 0.626040
vt 0.785278 0.868419
vt 0.739716 0.909366
vt 0.583086 0.832178
vt 0.606580 0.811064
vt 0.150935 0.944188
vt 0.092945 0.909366
vt 0.249575 0.832178
vt 0.279478 0.850134
vt 0.150936 0.555812
vt 0.219125 0.528453
vt 0.314640 0.635758
vt 0.279478 0.649866
vt 0.832661 0.725377
vt 0.631014 0.737303
vt 0.375326 1.000000
vt 0.395186 0.878914
vt 0.015999 0.677078
vt 0.209898 0.712397
vt 0.681726 0.555812
vt 0.553183 0.649866
vt 0.681726 0.944188
vt 0.553183 0.850134
vt 0.047383 0.868419
vt 0.226081 0.811064
vt 0.294891 0.509607
vt 0.375326 0.500000
vt 0.395186 0.621086
vt 0.353710 0.626040
vt 0.832661 0.774623
vt 0.631014 0.762697
vt 0.294891 0.990393
vt 0.353710 0.873960
vt 0.047383 0.631580
vt 0.226081 0.688936
vt 0.739716 0.590634
vt 0.613537 0.971547
vt 0.518021 0.864242
vt 0.015999 0.822922
vt 0.209898 0.787603
vt 0.457336 0.500000
vt 0.437475 0.621086
vt 0.816662 0.822922
vt 0.622764 0.787603
vt 0.219124 0.971547
vt 0.314640 0.864242
vt 0.092946 0.590634
vt 0.249576 0.667822
vt 0.554107 0.741852
vt 0.554107 0.758148
vt 0.492375 0.754497
vt 0.492375 0.745503
vt 0.328504 0.814262
vt 0.351069 0.823316
vt 0.548812 0.725868
vt 0.309313 0.802739
vt 0.294235 0.789188
vt 0.283849 0.774132
vt 0.548812 0.774132
vt 0.278555 0.758148
vt 0.538426 0.789188
vt 0.278555 0.741852
vt 0.523348 0.802739
vt 0.283850 0.725868
vt 0.504158 0.814262
vt 0.402761 0.667268
vt 0.376143 0.670447
vt 0.294235 0.710811
vt 0.481592 0.823316
vt 0.429900 0.667268
vt 0.309313 0.697261
vt 0.456518 0.829553
vt 0.456518 0.670447
vt 0.328504 0.685738
vt 0.429900 0.832732
vt 0.481592 0.676684
vt 0.351070 0.676684
vt 0.402761 0.832732
vt 0.504158 0.685738
vt 0.376143 0.829553
vt 0.394150 0.706092
vt 0.408841 0.704337
vt 0.423820 0.704337
vt 0.438512 0.706092
vt 0.452351 0.709534
vt 0.464806 0.714531
vt 0.475398 0.720891
vt 0.483720 0.728370
vt 0.489452 0.736681
vt 0.489452 0.763319
vt 0.483720 0.771630
vt 0.475398 0.779109
vt 0.464806 0.785469
vt 0.452351 0.790466
vt 0.438512 0.793908
vt 0.423820 0.795663
vt 0.408841 0.795663
vt 0.394150 0.793908
vt 0.380310 0.790466
vt 0.367856 0.785469
vt 0.357264 0.779109
vt 0.348942 0.771630
vt 0.343209 0.763319
vt 0.340287 0.754497
vt 0.340287 0.745502
vt 0.343209 0.736680
vt 0.348942 0.728370
vt 0.357264 0.720891
vt 0.367856 0.714531
vt 0.380311 0.709534
vt 0.375326 0.500000
vt 0.294892 0.490393
vt 0.219125 0.471547
vt 0.150936 0.444188
vt 0.092946 0.409366
vt 0.047383 0.368420
vt 0.015999 0.322923
vt 0.000000 0.274623
vt 0.000000 0.225377
vt 0.015999 0.177078
vt 0.047383 0.131581
vt 0.092945 0.090634
vt 0.150935 0.055812
vt 0.219124 0.028453
vt 0.294891 0.009607
vt 0.375326 0.000000
vt 0.457336 0.000000
vt 0.537770 0.009607
vt 0.613537 0.028453
vt 0.681726 0.055812
vt 0.739716 0.090634
vt 0.785278 0.131581
vt 0.816662 0.177078
vt 0.832661 0.225377
vt 0.832661 0.274623
vt 0.816662 0.322922
vt 0.785278 0.368419
vt 0.739716 0.409366
vt 0.681726 0.444188
vt 0.613537 0.471547
vt 0.537770 0.490393
vt 0.457336 0.500000
vt 0.832662 0.218810
vt 0.874496 0.218810
vt 0.874496 0.267110
vt 0.832662 0.267110
vt 0.874496 0.312607
vt 0.832662 0.312607
vt 0.874496 0.353553
vt 0.832662 0.353553
vt 0.874496 0.388375
vt 0.832662 0.388375
vt 0.916331 0.353553
vt 0.874496 0.353553
vt 0.874496 0.318731
vt 0.916331 0.318731
vt 0.874496 0.277785
vt 0.916331 0.277785
vt 0.874496 0.232288
vt 0.916331 0.232288
vt 0.874496 0.183989
vt 0.916331 0.183989
vt 0.874496 0.134743
vt 0.916331 0.134743
vt 0.874496 0.086443
vt 0.916331 0.086443
vt 0.874496 0.040946
vt 0.916331 0.040946
vt 0.874496 0.000000
vt 0.916331 0.000000
vt 1.000000 0.318732
vt 0.958165 0.318732
vt 0.958165 0.277785
vt 1.000000 0.277785
vt 0.958165 0.232288
vt 1.000000 0.232288
vt 0.958165 0.183989
vt 1.000000 0.183989
vt 0.958165 0.134743
vt 1.000000 0.134743
vt 0.958165 0.086443
vt 1.000000 0.086443
vt 0.958165 0.040946
vt 1.000000 0.040946
vt 0.958165 0.000000
vt 1.000000 0.000000
vt 0.958165 0.353554
vt 0.916331 0.353554
vt 0.916331 0.312607
vt 0.958165 0.312607
vt 0.916331 0.267110
vt 0.958165 0.267110
vt 0.916331 0.218811
vt 0.958165 0.218811
vt 0.916331 0.169565
vt 0.958165 0.169565
vt 0.916331 0.121265
vt 0.958165 0.121265
vt 0.916331 0.075768
vt 0.958165 0.075768
vt 0.916331 0.034822
vt 0.958165 0.034822
vt 0.916331 0.000000
vt 0.958165 0.000000
vt 0.832662 0.000000
vt 0.874496 0.000000
vt 0.874496 0.034822
vt 0.832662 0.034822
vt 0.874496 0.075768
vt 0.832662 0.075768
vt 0.874496 0.121265
vt 0.832662 0.121265
vt 0.874496 0.169565
vt 0.832662 0.169565
vn 0.2817 0.0277 -0.9591
vn 0.0000 0.0000 -1.0000
vn -0.0277 -0.2817 -0.9591
vn -0.2709 0.0822 -0.9591
vn 0.1796 0.2188 -0.9591
vn 0.1796 -0.2188 -0.9591
vn -0.2496 -0.1334 -0.9591
vn -0.0822 0.2709 -0.9591
vn 0.2817 -0.0277 -0.9591
vn -0.0822 -0.2709 -0.9591
vn -0.2496 0.1334 -0.9591
vn 0.2188 0.1796 -0.9591
vn 0.1334 -0.2496 -0.9591
vn -0.2709 -0.0822 -0.9591
vn 0.0277 0.2817 -0.9591
vn -0.0277 0.2817 -0.9591
vn 0.2709 -0.0822 -0.9591
vn -0.1334 -0.2496 -0.9591
vn -0.2188 0.1796 -0.9591
vn 0.2496 0.1334 -0.9591
vn 0.0822 -0.2709 -0.9591
vn -0.2817 -0.0277 -0.9591
vn 0.0822 0.2709 -0.9591
vn 0.2496 -0.1334 -0.9591
vn -0.1796 -0.2188 -0.9591
vn -0.1796 0.2188 -0.9591
vn 0.2709 0.0822 -0.9591
vn 0.0277 -0.2817 -0.9591
vn -0.2817 0.0277 -0.9591
vn 0.1334 0.2496 -0.9591
vn 0.2188 -0.1796 -0.9591
vn -0.2188 -0.1796 -0.9591
vn -0.1334 0.2496 -0.9591
vn -0.5191 0.1575 -0.8401
vn 0.5399 0.0532 -0.8401
vn -0.4784 0.2557 -0.8401
vn 0.5399 -0.0532 -0.8401
vn -0.4193 0.3441 -0.8401
vn 0.5191 -0.1575 -0.8401
vn -0.3441 0.4193 -0.8401
vn 0.4784 -0.2557 -0.8401
vn -0.2557 0.4784 -0.8401
vn -0.0532 -0.5399 -0.8401
vn 0.4193 -0.3441 -0.8401
vn -0.1575 0.5191 -0.8401
vn -0.1575 -0.5191 -0.8401
vn 0.3441 -0.4193 -0.8401
vn -0.0532 0.5399 -0.8401
vn -0.2557 -0.4784 -0.8401
vn 0.2557 -0.4784 -0.8401
vn 0.0532 0.5399 -0.8401
vn -0.3441 -0.4193 -0.8401
vn 0.1575 -0.5191 -0.8401
vn 0.1575 0.5191 -0.8401
vn -0.4193 -0.3441 -0.8401
vn 0.0532 -0.5399 -0.8401
vn 0.2557 0.4784 -0.8401
vn -0.4784 -0.2557 -0.8401
vn 0.3441 0.4193 -0.8401
vn -0.5191 -0.1575 -0.8401
vn 0.4193 0.3441 -0.8401
vn -0.5399 -0.0532 -0.8401
vn 0.4784 0.2557 -0.8401
vn -0.5399 0.0532 -0.8401
vn 0.5191 0.1575 -0.8401
vn 0.0000 -0.0000 1.0000
vn 0.0000 0.8132 -0.5819
vn 0.0000 0.7279 0.6857
vn 0.1420 0.7139 0.6857
vn 0.1586 0.7976 -0.5819
vn 0.2785 0.6725 0.6857
vn 0.3112 0.7513 -0.5819
vn 0.4044 0.6052 0.6857
vn 0.4518 0.6762 -0.5819
vn 0.5147 0.5147 0.6857
vn 0.5750 0.5750 -0.5819
vn 0.6052 0.4044 0.6857
vn 0.6762 0.4518 -0.5819
vn 0.6725 0.2785 0.6857
vn 0.7513 0.3112 -0.5819
vn 0.7139 0.1420 0.6857
vn 0.7976 0.1586 -0.5819
vn 0.7279 0.0000 0.6857
vn 0.8132 0.0000 -0.5819
vn 0.7139 -0.1420 0.6857
vn 0.7976 -0.1586 -0.5819
vn 0.6725 -0.2785 0.6857
vn 0.7513 -0.3112 -0.5819
vn 0.6052 -0.4044 0.6857
vn 0.6762 -0.4518 -0.5819
vn 0.5147 -0.5147 0.6857
vn 0.5750 -0.5750 -0.5819
vn 0.4044 -0.6052 0.6857
vn 0.4518 -0.6762 -0.5819
vn 0.2785 -0.6725 0.6857
vn 0.3112 -0.7513 -0.5819
vn 0.1420 -0.7139 0.6857
vn 0.1586 -0.7976 -0.5819
vn 0.0000 -0.7279 0.6857
vn 0.0000 -0.8132 -0.5819
vn -0.1420 -0.7139 0.6857
vn -0.1586 -0.7976 -0.5819
vn -0.2785 -0.6725 0.6857
vn -0.3112 -0.7513 -0.5819
vn -0.4044 -0.6052 0.6857
vn -0.4518 -0.6762 -0.5819
vn -0.5147 -0.5147 0.6857
vn -0.5750 -0.5750 -0.5819
vn -0.6052 -0.4044 0.6857
vn -0.6762 -0.4518 -0.5819
vn -0.6725 -0.2785 0.6857
vn -0.7513 -0.3112 -0.5819
vn -0.7139 -0.1420 0.6857
vn -0.7976 -0.1586 -0.5819
vn -0.7279 0.0000 0.6857
vn -0.8132 0.0000 -0.5819
vn -0.7139 0.1420 0.6857
vn -0.7976 0.1586 -0.5819
vn -0.6725 0.2785 0.6857
vn -0.7513 0.3112 -0.5819
vn -0.6052 0.4044 0.6857
vn -0.6762 0.4518 -0.5819
vn -0.5147 0.5147 0.6857
vn -0.5750 0.5750 -0.5819
vn -0.4044 0.6052 0.6857
vn -0.4518 0.6762 -0.5819
vn -0.2785 0.6725 0.6857
vn -0.3112 0.7513 -0.5819
vn -0.1420 0.7139 0.6857
vn -0.1586 0.7976 -0.5819
usemtl Material.001
s off
f 15/1/1 17/2/1 73/3/1 72/4/1
f 71/5/2 72/4/2 104/6/2 103/7/2
f 33/8/3 35/9/3 82/10/3 81/11/3
f 51/12/4 53/13/4 91/14/4 90/15/4
f 7/16/5 9/17/5 69/18/5 68/19/5
f 25/20/6 27/21/6 78/22/6 77/23/6
f 43/24/7 45/25/7 87/26/7 86/27/7
f 61/28/8 63/29/8 96/30/8 95/31/8
f 17/2/9 19/32/9 74/33/9 73/3/9
f 35/9/10 37/34/10 83/35/10 82/10/10
f 53/13/11 55/36/11 92/37/11 91/14/11
f 9/17/12 11/38/12 70/39/12 69/18/12
f 27/21/13 29/40/13 79/41/13 78/22/13
f 45/25/14 47/42/14 88/43/14 87/26/14
f 1/44/15 3/45/15 66/46/15 65/47/15
f 63/29/16 1/44/16 65/47/16 96/30/16
f 19/32/17 21/48/17 75/49/17 74/33/17
f 37/34/18 39/50/18 84/51/18 83/35/18
f 55/36/19 57/52/19 93/53/19 92/37/19
f 11/38/20 13/54/20 71/5/20 70/39/20
f 29/40/21 31/55/21 80/56/21 79/41/21
f 47/42/22 49/57/22 89/58/22 88/43/22
f 3/45/23 5/59/23 67/60/23 66/46/23
f 21/48/24 23/61/24 76/62/24 75/49/24
f 39/50/25 41/63/25 85/64/25 84/51/25
f 57/52/26 59/65/26 94/66/26 93/53/26
f 13/54/27 15/1/27 72/4/27 71/5/27
f 31/55/28 33/8/28 81/11/28 80/56/28
f 49/57/29 51/12/29 90/15/29 89/58/29
f 5/59/30 7/16/30 68/19/30 67/60/30
f 23/61/31 25/20/31 77/23/31 76/62/31
f 41/63/32 43/24/32 86/27/32 85/64/32
f 59/65/33 61/28/33 95/31/33 94/66/33
f 106/67/34 107/68/34 139/69/34 138/70/34
f 85/64/2 86/27/2 118/71/2 117/72/2
f 72/4/2 73/3/2 105/73/2 104/6/2
f 86/27/2 87/26/2 119/74/2 118/71/2
f 73/3/2 74/33/2 106/67/2 105/73/2
f 87/26/2 88/43/2 120/75/2 119/74/2
f 74/33/2 75/49/2 107/68/2 106/67/2
f 88/43/2 89/58/2 121/76/2 120/75/2
f 75/49/2 76/62/2 108/77/2 107/68/2
f 89/58/2 90/15/2 122/78/2 121/76/2
f 76/62/2 77/23/2 109/79/2 108/77/2
f 90/15/2 91/14/2 123/80/2 122/78/2
f 77/23/2 78/22/2 110/81/2 109/79/2
f 91/14/2 92/37/2 124/82/2 123/80/2
f 78/22/2 79/41/2 111/83/2 110/81/2
f 65/47/2 66/46/2 98/84/2 97/85/2
f 92/37/2 93/53/2 125/86/2 124/82/2
f 79/41/2 80/56/2 112/87/2 111/83/2
f 66/46/2 67/60/2 99/88/2 98/84/2
f 93/53/2 94/66/2 126/89/2 125/86/2
f 80/56/2 81/11/2 113/90/2 112/87/2
f 67/60/2 68/19/2 100/91/2 99/88/2
f 94/66/2 95/31/2 127/92/2 126/89/2
f 81/11/2 82/10/2 114/93/2 113/90/2
f 68/19/2 69/18/2 101/94/2 100/91/2
f 95/31/2 96/30/2 128/95/2 127/92/2
f 82/10/2 83/35/2 115/96/2 114/93/2
f 69/18/2 70/39/2 102/97/2 101/94/2
f 96/30/2 65/47/2 97/85/2 128/95/2
f 83/35/2 84/51/2 116/98/2 115/96/2
f 70/39/2 71/5/2 103/7/2 102/97/2
f 84/51/2 85/64/2 117/72/2 116/98/2
f 129/99/2 130/100/2 131/101/2 132/102/2 133/103/2 134/104/2 135/105/2 136/106/2 137/107/2 138/70/2 139/69/2 140/108/2 141/109/2 142/110/2 143/111/2 144/112/2 145/113/2 146/114/2 147/115/2 148/116/2 149/117/2 150/118/2 151/119/2 152/120/2 153/121/2 154/122/2 155/123/2 156/124/2 157/125/2 158/126/2 159/127/2 160/128/2
f 120/75/35 121/76/35 153/121/35 152/120/35
f 107/68/36 108/77/36 140/108/36 139/69/36
f 121/76/37 122/78/37 154/122/37 153/121/37
f 108/77/38 109/79/38 141/109/38 140/108/38
f 122/78/39 123/80/39 155/123/39 154/122/39
f 109/79/40 110/81/40 142/110/40 141/109/40
f 123/80/41 124/82/41 156/124/41 155/123/41
f 110/81/42 111/83/42 143/111/42 142/110/42
f 97/85/43 98/84/43 130/100/43 129/99/43
f 124/82/44 125/86/44 157/125/44 156/124/44
f 111/83/45 112/87/45 144/112/45 143/111/45
f 98/84/46 99/88/46 131/101/46 130/100/46
f 125/86/47 126/89/47 158/126/47 157/125/47
f 112/87/48 113/90/48 145/113/48 144/112/48
f 99/88/49 100/91/49 132/102/49 131/101/49
f 126/89/50 127/92/50 159/127/50 158/126/50
f 113/90/51 114/93/51 146/114/51 145/113/51
f 100/91/52 101/94/52 133/103/52 132/102/52
f 127/92/53 128/95/53 160/128/53 159/127/53
f 114/93/54 115/96/54 147/115/54 146/114/54
f 101/94/55 102/97/55 134/104/55 133/103/55
f 128/95/56 97/85/56 129/99/56 160/128/56
f 115/96/57 116/98/57 148/116/57 147/115/57
f 102/97/58 103/7/58 135/105/58 134/104/58
f 116/98/59 117/72/59 149/117/59 148/116/59
f 103/7/60 104/6/60 136/106/60 135/105/60
f 117/72/61 118/71/61 150/118/61 149/117/61
f 104/6/62 105/73/62 137/107/62 136/106/62
f 118/71/63 119/74/63 151/119/63 150/118/63
f 105/73/64 106/67/64 138/70/64 137/107/64
f 119/74/65 120/75/65 152/120/65 151/119/65
usemtl Material.002
f 4/129/66 2/130/66 64/131/66 62/132/66 60/133/66 58/134/66 56/135/66 54/136/66 52/137/66 50/138/66 48/139/66 46/140/66 44/141/66 42/142/66 40/143/66 38/144/66 36/145/66 34/146/66 32/147/66 30/148/66 28/149/66 26/150/66 24/151/66 22/152/66 20/153/66 18/154/66 16/155/66 14/156/66 12/157/66 10/158/66 8/159/66 6/160/66
s 1
f 1/161/67 2/162/68 4/163/69 3/164/70
f 3/164/70 4/163/69 6/165/71 5/166/72
f 5/166/72 6/165/71 8/167/73 7/168/74
f 7/168/74 8/167/73 10/169/75 9/170/76
f 9/171/76 10/172/75 12/173/77 11/174/78
f 11/174/78 12/173/77 14/175/79 13/176/80
f 13/176/80 14/175/79 16/177/81 15/178/82
f 15/178/82 16/177/81 18/179/83 17/180/84
f 17/180/84 18/179/83 20/181/85 19/182/86
f 19/182/86 20/181/85 22/183/87 21/184/88
f 21/184/88 22/183/87 24/185/89 23/186/90
f 23/186/90 24/185/89 26/187/91 25/188/92
f 25/189/92 26/190/91 28/191/93 27/192/94
f 27/192/94 28/191/93 30/193/95 29/194/96
f 29/194/96 30/193/95 32/195/97 31/196/98
f 31/196/98 32/195/97 34/197/99 33/198/100
f 33/198/100 34/197/99 36/199/101 35/200/102
f 35/200/102 36/199/101 38/201/103 37/202/104
f 37/202/104 38/201/103 40/203/105 39/204/106
f 39/205/106 40/206/105 42/207/107 41/208/108
f 41/208/108 42/207/107 44/209/109 43/210/110
f 43/210/110 44/209/109 46/211/111 45/212/112
f 45/212/112 46/211/111 48/213/113 47/214/114
f 47/214/114 48/213/113 50/215/115 49/216/116
f 49/216/116 50/215/115 52/217/117 51/218/118
f 51/218/118 52/217/117 54/219/119 53/220/120
f 53/220/120 54/219/119 56/221/121 55/222/122
f 55/223/122 56/224/121 58/225/123 57/226/124
f 57/226/124 58/225/123 60/227/125 59/228/126
f 59/228/126 60/227/125 62/229/127 61/230/128
f 61/230/128 62/229/127 64/231/129 63/232/130
f 63/232/130 64/231/129 2/162/68 1/161/67
